<?xml version="1.0" standalone="no"?>
<!DOCTYPE svg PUBLIC "-//W3C//DTD SVG 20010904//EN" "http://www.w3.org/TR/2001/REC-SVG-20010904/DTD/svg10.dtd">
<!-- Created using Krita: https://krita.org -->
<svg xmlns="http://www.w3.org/2000/svg" 
    xmlns:xlink="http://www.w3.org/1999/xlink"
    xmlns:krita="http://krita.org/namespaces/svg/krita"
    xmlns:sodipodi="http://sodipodi.sourceforge.net/DTD/sodipodi-0.dtd"
    width="822.857pt"
    height="822.857pt"
    viewBox="0 0 822.857 822.857">
<defs/>
<path id="shape0" transform="translate(339.428553197397, 271.954267341988)" fill="#1e74fd" fill-rule="evenodd" stroke="#000000" stroke-width="4.93714285714286" stroke-linecap="square" stroke-linejoin="round" d="M0 0L44.4343 502.766L425.417 477.53L456.686 7.76472Z" sodipodi:nodetypes="ccccc"/><ellipse id="shape1" transform="translate(473.554271229068, 436.83426986475)" rx="106.148570485688" ry="112.525713286185" cx="106.148570485688" cy="112.525713286185" fill="#000000" fill-rule="evenodd" stroke="#000000" stroke-width="0.411428571428571" stroke-linecap="square" stroke-linejoin="bevel"/><path id="shape0" transform="matrix(-0.894368731983662 0.447330320310511 -0.447330320310511 -0.894368731983662 673.997829648795 505.096354033354)" fill="#ff0000" fill-rule="evenodd" stroke="#000000" stroke-width="4.11428571428571" stroke-linecap="square" stroke-linejoin="round" d="M0.277796 0L78.483 13.054L3.85448 32.1958C0.933087 22.0947 -0.683669 11.5177 0.277796 0Z" sodipodi:nodetypes="cccc"/><path id="shape01" transform="matrix(0.894368752276242 0.447330330460113 0.447330330460113 -0.894368752276242 484.975506776889 507.884232133208)" fill="#ff0000" fill-rule="evenodd" stroke="#000000" stroke-width="4.11428571428571" stroke-linecap="square" stroke-linejoin="round" d="M0.277796 0L78.483 13.054L3.85448 32.1958C0.933087 22.0947 -0.683669 11.5177 0.277796 0Z" sodipodi:nodetypes="cccc"/><path id="shape02" transform="matrix(-0.481470425406293 0.876462246583636 0.876462246583636 0.481470425406293 618.703274452322 447.667119025018)" fill="#ff0000" fill-rule="evenodd" stroke="#000000" stroke-width="4.11428571428571" stroke-linecap="square" stroke-linejoin="round" d="M0.260598 0L73.6242 13.054L3.61585 32.1958C0.87532 22.0947 -0.641344 11.5177 0.260598 0Z" sodipodi:nodetypes="cccc"/><path id="shape2" transform="translate(528.745135348541, 512.965000013853)" fill="#8c8c8c" fill-rule="evenodd" stroke="#000000" stroke-width="0.411428571428571" stroke-linecap="square" stroke-linejoin="bevel" d="M24.832 81.8578C12.3547 78.1325 -4.19253 65.1386 0.969137 39.8921C3.26894 30.4628 9.67681 23.0252 21.0263 17.9836L110.576 0.0189299C115.078 -0.147318 121.027 0.742613 123.45 4.23733L127.377 5.83742C141.566 7.93681 154.358 23.5042 153.124 42.2029C152.09 55.8239 148.354 67.1492 134.214 75.0773C127.932 80.8822 120.298 83.2083 112.104 84.096Z" sodipodi:nodetypes="cccccccccc"/><path id="shape3" transform="translate(675.925716237023, 533.365707819193)" fill="#7f3820" fill-rule="evenodd" stroke="none" stroke-width="0.411428571428571" stroke-linecap="square" stroke-linejoin="bevel" d="M18.6686 14.2457L2.46857 10.6971L0 0L18.4114 3.39429Z" sodipodi:nodetypes="ccccc"/><path id="shape4" transform="translate(679.217144889234, 544.268565226125)" fill="#8a4523" fill-rule="evenodd" stroke="none" stroke-width="0.411428571428571" stroke-linecap="square" stroke-linejoin="bevel" d="M1.28571 9.36L18.6528 15.4087L18.3619 3.9899L0 0Z" sodipodi:nodetypes="ccccc"/><path id="shape5" transform="translate(676.542859109312, 560.725708490706)" fill="#ac5c35" fill-rule="evenodd" stroke="none" stroke-width="0.411428571428571" stroke-linecap="square" stroke-linejoin="bevel" d="M4.21714 0L19.44 5.4L17.9486 20.4171L0 11.0571Z" sodipodi:nodetypes="ccccc"/><path id="shape6" transform="translate(596.654356680619, 513.164146557047)" fill="#e8ac66" fill-rule="evenodd" stroke="none" stroke-width="0.411428571428571" stroke-linecap="square" stroke-linejoin="bevel" d="M0.0468071 75.8964C0.847258 72.8195 7.3013 68.5017 12.6293 70.2961C17.1982 72.2604 23.5605 73.2682 30.1574 74.1508C44.527 81.1699 53.3137 88.76 73.5778 89.4971C76.1352 89.5772 78.7954 88.2173 80.6327 86.806C88.3985 79.9886 96.6714 65.1366 97.1427 63.0957C98.0701 60.4472 97.1302 49.8154 99.3246 43.9675C94.4152 37.6771 94.5862 30.7681 94.088 23.9665C87.8588 23.1695 82.151 21.2862 78.2326 15.6751L59.2498 5.20186C57.7688 5.03893 55.7441 4.46326 56.1224 3.38359C56.3716 2.44174 57.3525 1.58596 59.2498 0.838004C65.1895 0.243995 71.1292 -0.409616 77.0689 0.328887C83.7497 1.39578 90.5717 2.21545 96.1972 5.12913C100.726 5.32342 107.136 4.85342 109.58 5.78371C116.077 7.33085 119.273 22.9635 123.835 34.8034C126.773 39.2853 129.788 43.4606 132.603 48.4358C136.13 48.9103 140.317 46.143 141.654 57.3844C146.062 57.3765 150.64 62.554 150.089 68.0816C149.735 94.8307 151.393 120.072 160.374 144.402C163.807 147.293 170.662 156.091 174.774 162.71C179.313 170.391 217.013 198.596 238.957 216.196L231.551 312.059C204.048 279.176 174.856 251.022 150.911 208.173C137.147 193.269 124.138 178.082 108.328 163.944C89.9856 144.23 70.8199 133.567 68.4199 130.413C62.4812 122.053 52.9094 114.761 41.4714 108.299C38.8656 106.74 36.7228 104.385 33.6542 103.67C28.6446 102.637 24.8196 100.241 21.5685 96.3673L14.7285 90.7101C9.83458 87.6236 -0.791076 80.4977 0.0468071 75.8964Z" sodipodi:nodetypes="ccccccccccccccccccccccccccccccc"/><ellipse id="shape7" transform="translate(621.974103587176, 518.366018848648)" rx="30.1657211773932" ry="35.4927197832581" cx="30.1657211773932" cy="35.4927197832581" fill="#999999" fill-rule="evenodd" stroke="#000000" stroke-width="0.411428571428571" stroke-linecap="square" stroke-linejoin="bevel"/><ellipse id="shape03" transform="matrix(0.999999994694546 0 0 0.999999994694546 623.998313390531 520.693410309845)" rx="26.8262249568436" ry="33.0925975144696" cx="26.8262249568436" cy="33.0925975144696" fill="#b2b2b2" stroke="#000000" stroke-width="0.411428571428571" stroke-linecap="square" stroke-linejoin="bevel"/><path id="shape8" transform="translate(637.116216761963, 529.225423248329)" fill="#000000" fill-rule="evenodd" stroke="#000000" stroke-width="0.411428571428571" stroke-linecap="square" stroke-linejoin="bevel" d="M0.958083 5.52886C4.86729 -1.31586 16.1124 -1.01971 20.4495 2.18601C26.1683 6.09784 27.2371 12.0795 25.4895 16.2774C21.4388 24.5148 7.86989 22.673 3.16951 18.1803C-0.595193 14.9723 -0.550766 8.21467 0.958083 5.52886Z" sodipodi:nodetypes="ccccc"/><path id="shape9" transform="translate(643.062847350896, 543.388285522208)" fill="#e6e6e6" fill-rule="evenodd" stroke="#000000" stroke-width="0.411428571428571" stroke-linecap="square" stroke-linejoin="bevel" d="M4.8343 28.1374L0 3.70884C3.43978 -0.763826 11.1163 -1.51473 15.6343 3.24599L23.1943 26.3888C23.4639 27.895 21.8867 29.7181 19.3886 30.0917L8.12571 30.0917C6.23867 30.1278 5.32314 29.0228 4.8343 28.1374Z" sodipodi:nodetypes="ccccccc"/><path id="shape10" transform="translate(651.247267482474, 560.386244728397)" fill="#b2b2b2" fill-rule="evenodd" stroke="#000000" stroke-width="0.411428571428571" stroke-linecap="square" stroke-linejoin="bevel" d="M0.111266 8.78238L9.52993 8.89148C10.1564 4.75463 7.47864 -0.344285 4.51149 0.0182955C-0.177282 0.172808 -0.198 5.25718 0.111266 8.78238Z" sodipodi:nodetypes="cccc"/><path id="shape11" transform="translate(595.2685504027, 586.606480786196)" fill="#d00000" fill-rule="evenodd" stroke="#d00000" stroke-width="0.411428571428571" stroke-linecap="square" stroke-linejoin="bevel" d="M17.288 6.7452C19.1732 8.68469 18.6989 11.9333 17.9789 14.5274C17.5954 15.8656 17.1526 17.7764 15.7243 17.1821C9.0095 13.3431 3.01161 8.87556 0.159857 3.61777C-0.458356 2.62378 0.850801 1.66615 1.7963 1.18128C4.20497 -0.344044 5.80496 -0.211364 7.79661 0.563064C11.1059 1.68943 15.2879 4.14712 17.288 6.7452Z" sodipodi:nodetypes="ccccccc"/><path id="shape04" transform="matrix(0.114382719908279 0.993436705402308 0.993436705402308 -0.114382719908279 562.614126002031 442.671279356301)" fill="#ff0000" fill-rule="evenodd" stroke="#000000" stroke-width="4.11428571428571" stroke-linecap="square" stroke-linejoin="round" d="M0.277796 0L78.483 13.054L3.85448 32.1958C0.933087 22.0947 -0.683669 11.5177 0.277796 0Z" sodipodi:nodetypes="cccc"/><path id="shape05" transform="matrix(0.605418826324784 0.795906978853891 0.795906978853891 -0.605418826324784 515.366490251103 464.606112370144)" fill="#ff0000" fill-rule="evenodd" stroke="#000000" stroke-width="4.11428571428571" stroke-linecap="square" stroke-linejoin="round" d="M0.277796 0L78.483 13.054L3.85448 32.1958C0.933087 22.0947 -0.683669 11.5177 0.277796 0Z" sodipodi:nodetypes="cccc"/><g id="group0" transform="translate(577.603115925204, 322.06089062045)" fill="none">
  <path id="shape12" fill="#000000" fill-rule="evenodd" stroke="#000000" stroke-width="0.411428571428571" stroke-linecap="square" stroke-linejoin="round" d="M33.84 17.8757C23.4876 26.6805 13.4805 35.5492 10.3886 45.6986C32.682 44.6442 56.2217 31.1272 79.4057 21.1671C123.3 1.58975 171.304 -6.08356 208.8 5.32714C194.132 5.29917 179.392 4.95401 165.189 6.97286C163.152 20.9375 156.002 32.3455 145.44 42.0471C158.581 41.3278 168.871 41.5086 178.354 41.9443C113.668 45.5424 61.7664 60.1948 40.6286 69.7157C32.4765 67.4214 24.4885 64.2072 19.0286 53.3614C12.6857 53.82 6.34286 54.1571 0 52.3329C6.98756 33.0713 20.7538 23.8492 33.84 17.8757Z" sodipodi:nodetypes="ccccccccccc"/>
  <path id="shape13" transform="translate(31.4911900504486, 8.66142207930351)" fill="#1e74fd" fill-rule="evenodd" stroke="none" stroke-width="0.411428571428571" stroke-linecap="square" stroke-linejoin="bevel" d="M0 42.932C1.65556 46.5801 5.50903 49.557 8.74286 50.4148C35.6199 41.5026 71.9687 36.3161 107.435 34.0017C115.557 25.7012 123.298 15.3395 123.618 0C84.344 7.19162 35.6559 34.2174 0 42.932Z" sodipodi:nodetypes="ccccc"/>
  <path id="shape14" transform="translate(40.7034387403048, 30.5333792214873)" fill="#000000" fill-rule="evenodd" stroke="#000000" stroke-width="0.411428571428571" stroke-linecap="square" stroke-linejoin="bevel" d="M0 18.6028C15.8586 13.4043 32.4693 6.59409 48.9791 0C56.5382 3.51341 54.1348 13.0409 48.3877 17.2543C34.8179 19.8976 20.6648 21.9801 8.25497 25.9123C3.29954 24.2444 1.00755 21.7388 0 18.6028Z" sodipodi:nodetypes="ccccc"/>
  <path id="shape15" transform="translate(43.085408494489, 31.9171548867173)" fill="#d00000" fill-rule="evenodd" stroke="#000000" stroke-width="0.411428571428571" stroke-linecap="square" stroke-linejoin="bevel" d="M0 16.4008C0.967498 18.7219 4.26862 22.4904 10.0369 23.2557C19.5282 20.9639 28.9228 18.6116 39.4747 16.9827C46.8415 12.0626 49.4045 4.34169 43.2386 0C29.0301 6.16192 14.5483 11.3943 0 16.4008Z" sodipodi:nodetypes="ccccc"/>
  <path id="shape16" transform="translate(52.9882987811821, 35.9848074428297)" fill="#000000" fill-rule="evenodd" stroke="#000000" stroke-width="0.411428571428571" stroke-linecap="square" stroke-linejoin="bevel" d="M23.8371 0C27.3418 2.26083 27.7939 8.88931 17.8714 13.2686C10.6451 16.6272 3.29421 15.5655 0 13.14L0.128571 8.97429C7.91946 6.2068 15.8409 3.17821 23.8371 0Z" sodipodi:nodetypes="ccccc"/>
  <path id="shape17" transform="translate(47.8197273757924, 42.7990931265525)" fill="#ffffff" fill-rule="evenodd" stroke="#ffffff" stroke-width="0.411428571428571" stroke-linecap="square" stroke-linejoin="bevel" d="M0 3.80571C3.80571 2.85923 7.61143 1.31713 11.4171 0C12.7602 1.72433 11.987 2.92666 10.4657 4.19143C8.96081 5.46121 6.56835 6.63395 4.08857 6.32571C2.14817 6.06326 0.140153 5.86842 0 3.80571Z" sodipodi:nodetypes="ccccc"/>
  <path id="shape18" transform="translate(30.5654429659963, 6.97909420721327)" fill="#000000" fill-opacity="0.376470588235294" fill-rule="evenodd" stroke="none" stroke-width="0.411428571428571" stroke-linecap="square" stroke-linejoin="bevel" d="M0 44.5629L1.36286 46.7871C42.3978 36.4716 75.3119 15.1822 124.689 11.4171L126.437 0L72.4372 11.1086L16.0714 36.3086Z" sodipodi:nodetypes="ccccccc"/>
 </g><g id="group0" transform="matrix(-1.00000002453342 0 0 1.00000002453342 567.484280744116 322.513608144746)" fill="none">
  <path id="shape06" transform="translate(5.6843418860808e-14, -2.93494405667616e-06)" fill="#000000" fill-rule="evenodd" stroke="#000000" stroke-width="0.411428571428571" stroke-linecap="square" stroke-linejoin="round" d="M33.84 17.8757C23.4876 26.6805 13.4805 35.5492 10.3886 45.6986C32.682 44.6442 56.2217 31.1272 79.4057 21.1671C123.3 1.58975 171.304 -6.08356 208.8 5.32714C194.132 5.29917 179.392 4.95401 165.189 6.97286C163.152 20.9375 156.002 32.3455 145.44 42.0471C158.581 41.3278 168.871 41.5086 178.354 41.9443C113.668 45.5424 61.7664 60.1948 40.6286 69.7157C32.4765 67.4214 24.4885 64.2072 19.0286 53.3614C12.6857 53.82 6.34286 54.1571 0 52.3329C6.98756 33.0713 20.7538 23.8492 33.84 17.8757Z" sodipodi:nodetypes="ccccccccccc"/>
  <path id="shape1" transform="translate(31.4911900504486, 8.66142207930351)" fill="#1e74fd" fill-rule="evenodd" stroke-opacity="0" stroke="#000000" stroke-width="0" stroke-linecap="square" stroke-linejoin="bevel" d="M0 42.932C1.65556 46.5801 5.50903 49.557 8.74286 50.4148C35.6199 41.5026 71.9687 36.3161 107.435 34.0017C115.557 25.7012 123.298 15.3395 123.618 0C84.344 7.19162 35.6559 34.2174 0 42.932Z" sodipodi:nodetypes="ccccc"/>
  <path id="shape2" transform="translate(40.7034387403048, 30.5333792214873)" fill="#000000" fill-rule="evenodd" stroke="#000000" stroke-width="0.411428571428571" stroke-linecap="square" stroke-linejoin="bevel" d="M0 18.6028C15.8586 13.4043 32.4693 6.59409 48.9791 0C56.5382 3.51341 54.1348 13.0409 48.3877 17.2543C34.8179 19.8976 20.6648 21.9801 8.25497 25.9123C3.29954 24.2444 1.00755 21.7388 0 18.6028Z" sodipodi:nodetypes="ccccc"/>
  <path id="shape3" transform="translate(43.0854084944891, 31.9171548867173)" fill="#d00000" fill-rule="evenodd" stroke="#000000" stroke-width="0.411428571428571" stroke-linecap="square" stroke-linejoin="bevel" d="M0 16.4008C0.967498 18.7219 4.26862 22.4904 10.0369 23.2557C19.5282 20.9639 28.9228 18.6116 39.4747 16.9827C46.8415 12.0626 49.4045 4.34169 43.2386 0C29.0301 6.16192 14.5483 11.3943 0 16.4008Z" sodipodi:nodetypes="ccccc"/>
  <path id="shape4" transform="translate(52.9882987811822, 35.9848074428297)" fill="#000000" fill-rule="evenodd" stroke="#000000" stroke-width="0.411428571428571" stroke-linecap="square" stroke-linejoin="bevel" d="M23.8371 0C27.3418 2.26083 27.7939 8.88931 17.8714 13.2686C10.6451 16.6272 3.29421 15.5655 0 13.14L0.128571 8.97429C7.91946 6.2068 15.8409 3.17821 23.8371 0Z" sodipodi:nodetypes="ccccc"/>
  <path id="shape5" transform="translate(47.8197273757924, 42.7990931265525)" fill="#ffffff" fill-rule="evenodd" stroke="#ffffff" stroke-width="0.411428571428571" stroke-linecap="square" stroke-linejoin="bevel" d="M0 3.80571C3.80571 2.85923 7.61143 1.31713 11.4171 0C12.7602 1.72433 11.987 2.92666 10.4657 4.19143C8.96081 5.46121 6.56835 6.63395 4.08857 6.32571C2.14817 6.06326 0.140153 5.86842 0 3.80571Z" sodipodi:nodetypes="ccccc"/>
  <path id="shape6" transform="translate(30.5654429659963, 6.97909420721327)" fill="#000000" fill-opacity="0.376470588235294" fill-rule="evenodd" stroke-opacity="0" stroke="#000000" stroke-width="0" stroke-linecap="square" stroke-linejoin="bevel" d="M0 44.5629L1.36286 46.7871C42.3978 36.4716 75.3119 15.1822 124.689 11.4171L126.437 0L72.4372 11.1086L16.0714 36.3086Z" sodipodi:nodetypes="ccccccc"/>
 </g><path id="shape19" transform="translate(38.2628538888978, 41.9657107168556)" fill="#ffffff" fill-rule="evenodd" stroke="#000000" stroke-width="3.90857142857143" stroke-linecap="square" stroke-linejoin="round" d="M0 1.23429L687.497 0L684.206 175.269L258.789 175.68L351.771 420.891L159.223 175.269L11.1086 172.8Z" sodipodi:nodetypes="cccccccc"/><text id="shape20" krita:useRichText="true" krita:textVersion="2" transform="translate(85.5771423805309, 145.948570676991)" fill="#000000" stroke-opacity="0" stroke="#000000" stroke-width="0" stroke-linecap="square" stroke-linejoin="bevel" font-size="60" font-size-adjust="0.422977" font-stretch="normal" font-weight="700" kerning="0" letter-spacing="0" word-spacing="0"><tspan x="0">Computer sagt nein!</tspan></text>
</svg>
